HIERARCHY
ROOT SpineBase
{
  OFFSET 0.000000 0.000000 0.000000
  CHANNELS 6 Xposition Yposition Zposition Zrotation Xrotation Yrotation
  JOINT SpineMid
  {
    OFFSET 0.000000 29.733410 0.000000
    CHANNELS 3 Zrotation Xrotation Yrotation
    JOINT SpineShoulder
    {
      OFFSET 0.103033 22.112389 -0.724098
      CHANNELS 3 Zrotation Xrotation Yrotation
      JOINT Neck
      {
        OFFSET 0.056420 7.339625 -0.565579
        CHANNELS 3 Zrotation Xrotation Yrotation
        JOINT Head
        {
          OFFSET -3.442974 13.315035 -0.150472
          CHANNELS 3 Zrotation Xrotation Yrotation
          End Site
          {
            OFFSET 0 0 0
          }
        }
      }
      JOINT ShoulderLeft
      {
        OFFSET -16.058265 -3.968135 4.871170
        CHANNELS 3 Zrotation Xrotation Yrotation
        JOINT ElbowLeft
        {
          OFFSET -2.597187 -29.146192 3.655887
          CHANNELS 3 Zrotation Xrotation Yrotation
          JOINT WristLeft
          {
            OFFSET 0.452059 -21.982766 -5.279403
            CHANNELS 3 Zrotation Xrotation Yrotation
            JOINT HandLeft
            {
              OFFSET 0.430727 -2.035063 -0.843806
              CHANNELS 3 Zrotation Xrotation Yrotation
              JOINT HandTipLeft
              {
                OFFSET 2.981761 -7.591470 -2.280924
                CHANNELS 3 Zrotation Xrotation Yrotation
                End Site
                {
                  OFFSET 0 0 0
                }
              }
              JOINT ThumbLeft
              {
                OFFSET -1.691801 -1.223603 -0.938526
                CHANNELS 3 Zrotation Xrotation Yrotation
                End Site
                {
                  OFFSET 0 0 0
                }
              }
            }
          }
        }
      }
      JOINT ShoulderRight
      {
        OFFSET 14.486356 -2.476348 -7.041693
        CHANNELS 3 Zrotation Xrotation Yrotation
        JOINT ElbowRight
        {
          OFFSET 7.883514 -25.921054 1.340476
          CHANNELS 3 Zrotation Xrotation Yrotation
          JOINT WristRight
          {
            OFFSET 0.357709 -22.182815 -4.142675
            CHANNELS 3 Zrotation Xrotation Yrotation
            JOINT HandRight
            {
              OFFSET -3.213384 -6.011635 0.289900
              CHANNELS 3 Zrotation Xrotation Yrotation
              JOINT HandTipRight
              {
                OFFSET -1.111077 -4.505863 -0.369556
                CHANNELS 3 Zrotation Xrotation Yrotation
                End Site
                {
                  OFFSET 0 0 0
                }
              }
              JOINT ThumbRight
              {
                OFFSET 2.414519 -1.569946 0.024704
                CHANNELS 3 Zrotation Xrotation Yrotation
                End Site
                {
                  OFFSET 0 0 0
                }
              }
            }
          }
        }
      }
    }
  }
  JOINT HipLeft
  {
    OFFSET -6.493766 0.289995 -0.986109
    CHANNELS 3 Zrotation Xrotation Yrotation
    JOINT KneeLeft
    {
      OFFSET 3.054162 -27.957245 4.354790
      CHANNELS 3 Zrotation Xrotation Yrotation
      JOINT AnkleLeft
      {
        OFFSET 3.682475 -33.176621 4.323556
        CHANNELS 3 Zrotation Xrotation Yrotation
        JOINT FootLeft
        {
          OFFSET -1.355883 -4.442425 -10.585671
          CHANNELS 3 Zrotation Xrotation Yrotation
          End Site
          {
            OFFSET 0 0 0
          }
        }
      }
    }
  }
  JOINT HipRight
  {
    OFFSET 7.158319 1.673442 -5.742723
    CHANNELS 3 Zrotation Xrotation Yrotation
    JOINT KneeRight
    {
      OFFSET 5.829260 -25.353411 1.023216
      CHANNELS 3 Zrotation Xrotation Yrotation
      JOINT AnkleRight
      {
        OFFSET 1.663107 -36.671176 6.409736
        CHANNELS 3 Zrotation Xrotation Yrotation
        JOINT FootRight
        {
          OFFSET -1.257846 -7.694774 -5.366458
          CHANNELS 3 Zrotation Xrotation Yrotation
          End Site
          {
            OFFSET 0 0 0
          }
        }
      }
    }
  }
}
MOTION
Frames: 9
Frame Time: 0.033333
-32.562641 69.718621 346.292953 -2.104969 -4.851406 22.256235 -0.362953 0.639006 -22.377760 -0.264083 0.261482 -0.110512 -0.102321 2.246527 -0.268693 0.000000 0.000000 0.000000 -83.021243 18.546009 6.306118 5.280191 -14.897755 25.262488 7.863276 -3.119027 16.533919 -21.168715 11.277064 16.043594 0.000000 0.000000 0.000000 0.000000 0.000000 0.000000 21.768485 59.640815 7.837898 -1.559115 11.238754 -22.637317 38.585625 -9.608574 -3.983057 -18.597826 11.050331 -1.886307 0.000000 0.000000 0.000000 0.000000 0.000000 0.000000 2.929004 6.441596 -22.436754 -0.407028 -0.024506 -0.013278 -0.789671 -1.819050 7.006678 0.000000 0.000000 0.000000 5.158373 4.154062 -22.298633 -0.181738 1.568238 -0.005126 -15.587119 8.225817 8.306843 0.000000 0.000000 0.000000
-32.397069 70.077209 346.773224 -2.441094 -4.282402 22.665855 -0.147717 0.562666 -22.806890 0.000622 0.277362 -0.107104 -1.593626 1.649306 -0.243040 0.000000 0.000000 0.000000 -83.311977 41.396099 25.338590 5.750253 -21.927527 20.397596 23.855577 19.664645 27.153719 -48.876306 7.699595 -5.773883 0.000000 0.000000 0.000000 0.000000 0.000000 0.000000 -25.328286 61.281313 38.016366 -4.995675 6.998849 -17.987650 43.222344 -8.130120 -9.775306 -18.172090 12.121620 3.803570 0.000000 0.000000 0.000000 0.000000 0.000000 0.000000 2.955834 6.607694 -22.811361 -0.039556 -0.602814 -0.022364 2.390480 -6.063833 1.142591 0.000000 0.000000 0.000000 5.283853 3.938576 -22.586507 0.040290 1.515828 -0.072296 -13.857294 15.624029 6.374565 0.000000 0.000000 0.000000
-32.159401 70.291851 347.188737 -2.470312 -3.804189 21.437027 0.131718 0.181250 -21.578658 0.309057 0.321956 -0.078150 -4.104019 1.852087 -0.083023 0.000000 0.000000 0.000000 -81.559638 63.747714 44.676125 -6.793791 -26.727793 9.310333 34.458566 18.766813 23.909843 -62.987220 10.279211 -7.251776 0.000000 0.000000 0.000000 0.000000 0.000000 0.000000 -60.511826 48.715294 51.680177 -5.455159 -0.483441 -12.477172 44.171129 0.298940 -18.276616 -17.237564 7.895203 9.580226 0.000000 0.000000 0.000000 0.000000 0.000000 0.000000 2.457156 6.523233 -21.561054 0.251944 -0.663427 0.023881 6.718146 -12.517710 -8.560527 0.000000 0.000000 0.000000 4.833713 4.516979 -21.161345 0.648622 0.924859 -0.192251 -12.609974 14.332182 5.463282 0.000000 0.000000 0.000000
-31.925329 70.388387 347.452075 -2.210939 -3.685031 18.332305 0.334611 -0.106040 -18.457943 0.434764 0.346857 -0.049799 -6.963409 3.340801 0.447115 0.000000 0.000000 0.000000 -72.943454 82.628056 55.751026 -15.556200 -19.604705 1.892464 18.685253 1.489048 19.688604 -51.893522 8.045789 -2.213519 0.000000 0.000000 0.000000 0.000000 0.000000 0.000000 -76.826564 34.748289 46.675410 -8.403942 -8.308900 -10.342956 37.650604 4.931161 -22.252488 -14.842176 7.720172 13.453400 0.000000 0.000000 0.000000 0.000000 0.000000 0.000000 1.625508 6.218246 -18.466431 0.323286 -0.110417 0.107581 8.619387 -13.679388 -14.031110 0.000000 0.000000 0.000000 3.900083 5.832755 -17.836326 1.392402 0.114201 -0.330836 -8.182155 18.378944 1.843404 0.000000 0.000000 0.000000
-31.695964 70.372182 347.437891 -1.710070 -3.800665 15.057281 0.432500 -0.326047 -15.153258 0.479464 0.324943 -0.021436 -9.774459 5.829004 1.346605 0.000000 0.000000 0.000000 82.044023 81.961346 -82.446744 -15.191836 -8.612811 -1.732976 2.879473 -13.504097 11.891490 -47.992365 9.705731 3.608398 0.000000 0.000000 0.000000 0.000000 0.000000 0.000000 -85.092147 24.666196 37.336003 -15.692370 -19.944477 -17.185899 30.996096 10.077137 -19.698385 -14.981061 2.428024 11.917299 0.000000 0.000000 0.000000 0.000000 0.000000 0.000000 0.731588 5.699812 -15.220815 0.231836 0.770945 0.202625 9.532249 -12.156630 -16.965251 0.000000 0.000000 0.000000 2.367189 7.220733 -14.342133 2.341779 -0.752787 -0.413668 -3.557220 17.028400 -1.384032 0.000000 0.000000 0.000000
-31.488787 70.226400 347.044609 -1.057859 -4.010332 11.685687 0.455428 -0.538104 -11.739708 0.412554 0.177466 0.005812 -12.718637 10.048367 3.014107 0.000000 0.000000 0.000000 91.896275 69.385372 -77.513303 -8.138377 -4.086886 -4.413058 -26.299814 -12.675280 -0.533744 -37.873695 9.383753 5.688944 0.000000 0.000000 0.000000 0.000000 0.000000 0.000000 -90.363747 17.932087 29.209332 -23.950328 -34.802415 -35.022330 26.004104 19.366578 -10.588919 -16.031183 -13.924037 2.168584 0.000000 0.000000 0.000000 0.000000 0.000000 0.000000 -0.122244 4.568141 -11.920365 -0.135017 2.183429 0.323608 9.484526 -8.261658 -17.009030 0.000000 0.000000 0.000000 0.302468 7.917736 -10.840863 3.325393 -0.956135 -0.361867 -1.927996 18.988483 -2.738470 0.000000 0.000000 0.000000
-31.257329 69.931615 346.361036 -0.484465 -3.987599 9.512009 0.461088 -0.671380 -9.524346 0.344785 0.131681 0.028692 -15.257982 13.616780 4.664247 0.000000 0.000000 0.000000 97.616737 60.724590 -72.619591 -0.472130 -13.407054 -2.068609 -41.289702 -4.605260 -3.876787 -46.623186 10.916082 6.439626 0.000000 0.000000 0.000000 0.000000 0.000000 0.000000 -94.222780 13.617456 23.033946 -32.453441 -46.604204 -58.155981 20.322044 28.200017 1.486776 -14.167676 -16.281168 -1.591306 0.000000 0.000000 0.000000 0.000000 0.000000 0.000000 -0.801815 2.966314 -9.857050 -0.408296 3.704608 0.479321 8.084494 -2.428582 -14.002575 0.000000 0.000000 0.000000 -1.762538 7.521520 -8.690254 4.219589 -0.577012 -0.212904 -2.122518 22.233975 -2.755624 0.000000 0.000000 0.000000
-31.114678 69.714354 345.656811 -0.066014 -4.044207 8.046092 0.436474 -0.713405 -8.027760 0.340456 0.305852 0.042486 -17.590592 16.919194 6.384650 0.000000 0.000000 0.000000 100.075694 54.742065 -67.246332 11.967305 -25.729230 9.100561 -59.465206 8.286877 -2.179939 -49.007962 13.252449 10.205523 0.000000 0.000000 0.000000 0.000000 0.000000 0.000000 -95.572069 10.790834 17.706626 -45.223025 -49.241919 -77.975286 23.630075 34.643010 6.289153 -13.534494 -16.654399 -3.750722 0.000000 0.000000 0.000000 0.000000 0.000000 0.000000 -1.236352 1.605345 -8.501088 -0.613977 4.927725 0.611690 4.654348 6.546497 -7.550201 0.000000 0.000000 0.000000 -3.140600 6.874669 -7.338402 4.837812 0.031954 -0.039161 -3.077697 19.147714 -1.571484 0.000000 0.000000 0.000000
-30.885180 69.515205 344.894619 0.418262 -3.796819 7.102169 0.322217 -0.496933 -7.051952 0.328257 0.504496 0.052344 -19.131348 17.830871 7.089003 0.000000 0.000000 0.000000 100.204326 54.963050 -67.636652 28.679768 -34.262999 27.677597 -65.785423 23.138694 3.444319 -49.514232 15.125485 11.284766 0.000000 0.000000 0.000000 0.000000 0.000000 0.000000 -97.061563 10.139008 16.057737 -50.321610 -51.605342 -91.030198 18.960719 41.485158 13.013516 -12.460055 -19.215246 -5.658300 0.000000 0.000000 0.000000 0.000000 0.000000 0.000000 -1.984740 0.055429 -7.697219 -0.524249 6.027492 0.767264 3.979816 8.748496 -6.612584 0.000000 0.000000 0.000000 -4.763227 5.807544 -6.565004 5.771979 0.718314 0.176683 -5.285440 11.951342 0.927096 0.000000 0.000000 0.000000
